<?xml version="1.0" encoding="utf-8"?>
<!-- Generator: Adobe Illustrator 23.0.3, SVG Export Plug-In . SVG Version: 6.00 Build 0)  -->
<svg version="1.1" xmlns="http://www.w3.org/2000/svg" xmlns:xlink="http://www.w3.org/1999/xlink" x="0px" y="0px"
	 viewBox="0 0 500 500" style="enable-background:new 0 0 500 500;" xml:space="preserve">
<style type="text/css">
	.st0{fill:#EBEBEB;}
	.st1{fill:#F0F0F0;}
	.st2{fill:#F5F5F5;}
	.st3{fill:#E6E6E6;}
	.st4{fill:#FFFFFF;}
	.st5{fill:#FAFAFA;}
	.st6{opacity:0.4;fill:#E6E6E6;}
	.st7{fill:#E0E0E0;}
	.st8{display:none;}
	.st9{display:inline;}
	.st10{fill:#407BFF;}
	.st11{opacity:0.9;fill:#FFFFFF;}
	.st12{opacity:0.9;}
	.st13{fill:#97654B;}
	.st14{opacity:0.2;fill:#97654B;}
	.st15{opacity:0.2;fill:#C09B7E;}
	.st16{fill:#C09B7E;}
	.st17{opacity:0.6;fill:#97654B;}
	.st18{opacity:0.3;}
	.st19{opacity:0.6;fill:#FFFFFF;}
	.st20{opacity:0.4;fill:#FFFFFF;}
	.st21{fill:#B55B52;}
	.st22{fill:#263238;}
	.st23{fill:#A02724;}
	.st24{opacity:0.2;}
	.st25{opacity:0.4;fill:#97654B;}
</style>
<g id="Background_Complete">
	<g>
		<rect y="382.4" class="st0" width="500" height="0.25"/>
		<rect x="131.47" y="397.82" class="st0" width="33.12" height="0.25"/>
		<rect x="250.15" y="395.11" class="st0" width="8.69" height="0.25"/>
		<rect x="52.46" y="390.89" class="st0" width="19.19" height="0.25"/>
		<rect x="389.7" y="389.21" class="st0" width="26.08" height="0.25"/>
		<rect x="357.35" y="389.21" class="st0" width="23.44" height="0.25"/>
		<rect x="356.23" y="401.21" class="st0" width="93.68" height="0.25"/>
		<path class="st0" d="M237.01,337.8H43.92c-3.15,0-5.71-2.56-5.71-5.71V60.66c0-3.15,2.56-5.71,5.71-5.71h193.1
			c3.15,0,5.71,2.56,5.71,5.71v271.43C242.72,335.24,240.16,337.8,237.01,337.8z M43.92,55.2c-3.01,0-5.46,2.45-5.46,5.46v271.43
			c0,3.01,2.45,5.46,5.46,5.46h193.1c3.01,0,5.46-2.45,5.46-5.46V60.66c0-3.01-2.45-5.46-5.46-5.46H43.92z"/>
		<path class="st0" d="M453.31,337.8h-193.1c-3.15,0-5.71-2.56-5.71-5.71V60.66c0-3.15,2.56-5.71,5.71-5.71h193.1
			c3.15,0,5.71,2.56,5.71,5.71v271.43C459.02,335.24,456.46,337.8,453.31,337.8z M260.21,55.2c-3.01,0-5.46,2.45-5.46,5.46v271.43
			c0,3.01,2.45,5.46,5.46,5.46h193.1c3.01,0,5.46-2.45,5.46-5.46V60.66c0-3.01-2.45-5.46-5.46-5.46H260.21z"/>
	</g>
	<g>
		<g>
			<g>
				
					<rect x="318.61" y="276.38" transform="matrix(-1 -1.224647e-16 1.224647e-16 -1 660.7638 655.8041)" class="st1" width="23.55" height="103.04"/>
				
					<rect x="233.94" y="379.42" transform="matrix(-1 -1.224647e-16 1.224647e-16 -1 571.5804 761.8198)" class="st1" width="103.69" height="2.98"/>
				<rect x="229.42" y="276.38" class="st2" width="89.18" height="103.04"/>
				<rect x="238.68" y="282.16" class="st1" width="70.66" height="43.44"/>
				<rect x="238.68" y="330.2" class="st1" width="70.66" height="43.44"/>
				<path class="st2" d="M292.33,289.73H255.7c-4.8,0-8.69-3.89-8.69-8.69l0,0h54.01l0,0C301.02,285.84,297.13,289.73,292.33,289.73
					z"/>
				<path class="st2" d="M292.33,337.77H255.7c-4.8,0-8.69-3.89-8.69-8.69l0,0h54.01l0,0C301.02,333.88,297.13,337.77,292.33,337.77
					z"/>
			</g>
		</g>
		<g>
			<g>
				
					<rect x="414.78" y="276.38" transform="matrix(-1 -1.224647e-16 1.224647e-16 -1 853.1138 655.8041)" class="st1" width="23.55" height="103.04"/>
				
					<rect x="330.12" y="379.42" transform="matrix(-1 -1.224647e-16 1.224647e-16 -1 763.9304 761.8198)" class="st1" width="103.69" height="2.98"/>
				<rect x="325.6" y="276.38" class="st2" width="89.18" height="103.04"/>
				<rect x="334.86" y="282.16" class="st1" width="70.66" height="43.44"/>
				<rect x="334.86" y="330.2" class="st1" width="70.66" height="43.44"/>
				<path class="st2" d="M388.5,289.73h-36.63c-4.8,0-8.69-3.89-8.69-8.69l0,0h54.01l0,0C397.19,285.84,393.3,289.73,388.5,289.73z"
					/>
				<path class="st2" d="M388.5,337.77h-36.63c-4.8,0-8.69-3.89-8.69-8.69l0,0h54.01l0,0C397.19,333.88,393.3,337.77,388.5,337.77z"
					/>
			</g>
		</g>
	</g>
	<g>
		
			<rect x="111.42" y="91.32" transform="matrix(-1 -1.224647e-16 1.224647e-16 -1 263.176 229.2628)" class="st3" width="40.34" height="46.63"/>
		
			<rect x="106.82" y="91.32" transform="matrix(-1 -1.224647e-16 1.224647e-16 -1 257.5021 229.2628)" class="st2" width="43.86" height="46.63"/>
		
			<rect x="109.11" y="96.38" transform="matrix(-1.836970e-16 1 -1 -1.836970e-16 243.3825 -14.1197)" class="st4" width="39.28" height="36.51"/>
		<path class="st2" d="M138.16,124.75v-1.43c0-10.39-8.42-18.81-18.81-18.81l0,0v1.43C119.35,116.33,127.77,124.75,138.16,124.75
			L138.16,124.75z"/>
	</g>
	<g>
		
			<rect x="286.63" y="84.06" transform="matrix(-1 -1.224647e-16 1.224647e-16 -1 724.9671 310.0125)" class="st3" width="151.7" height="141.9"/>
		
			<rect x="281.93" y="84.06" transform="matrix(-1 -1.224647e-16 1.224647e-16 -1 718.0677 310.0125)" class="st1" width="154.2" height="141.9"/>
		
			<rect x="286.63" y="225.95" transform="matrix(-1 -1.224647e-16 1.224647e-16 -1 724.9671 456.9645)" class="st3" width="151.7" height="5.06"/>
		
			<rect x="274.1" y="225.95" transform="matrix(-1 -1.224647e-16 1.224647e-16 -1 702.4003 456.9645)" class="st1" width="154.2" height="5.06"/>
		
			<rect x="295.7" y="84.49" transform="matrix(-1.836970e-16 1 -1 -1.836970e-16 514.0402 -204.0276)" class="st5" width="126.66" height="141.04"/>
		<polygon class="st4" points="389.56,218.34 366.07,91.67 327.37,91.67 350.86,218.34 		"/>
		<path class="st1" d="M426.51,175.36c0.26,0,0.47-0.24,0.47-0.54V96.63c0-0.3-0.21-0.54-0.47-0.54c-0.26,0-0.47,0.24-0.47,0.54
			v78.19C426.04,175.12,426.25,175.36,426.51,175.36z"/>
		<polygon class="st4" points="342.54,218.34 319.05,91.67 303.97,91.67 327.45,218.34 		"/>
		
			<rect x="225.6" y="154.59" transform="matrix(-1.836970e-16 1 -1 -1.836970e-16 443.939 -133.9265)" class="st3" width="126.66" height="0.84"/>
		<polygon class="st6" points="280.37,101.42 432.07,101.42 432.68,94.64 280.98,94.64 		"/>
		<polygon class="st6" points="280.37,109.23 432.07,109.23 432.68,102.44 280.98,102.44 		"/>
		<polygon class="st6" points="280.37,117.03 432.07,117.03 432.68,110.25 280.98,110.25 		"/>
		<polygon class="st6" points="280.37,124.84 432.07,124.84 432.68,118.05 280.98,118.05 		"/>
		<polygon class="st6" points="280.37,132.64 432.07,132.64 432.68,125.86 280.98,125.86 		"/>
		<polygon class="st6" points="280.37,140.45 432.07,140.45 432.68,133.66 280.98,133.66 		"/>
		<polygon class="st6" points="280.37,148.25 432.07,148.25 432.68,141.47 280.98,141.47 		"/>
		<polygon class="st6" points="280.37,156.06 432.07,156.06 432.68,149.27 280.98,149.27 		"/>
		<polygon class="st6" points="280.37,163.86 432.07,163.86 432.68,157.08 280.98,157.08 		"/>
	</g>
	<g>
		
			<rect x="82.82" y="177.9" transform="matrix(-1 -1.224647e-16 1.224647e-16 -1 197.1121 391.9064)" class="st3" width="31.47" height="36.11"/>
		
			<rect x="79.26" y="177.9" transform="matrix(-1 -1.224647e-16 1.224647e-16 -1 192.4881 391.9064)" class="st2" width="33.97" height="36.11"/>
		
			<rect x="81.03" y="181.81" transform="matrix(-1.836970e-16 1 -1 -1.836970e-16 292.1973 99.7091)" class="st4" width="30.42" height="28.28"/>
		<path class="st2" d="M103.53,196.51v-1.1c0-4.02-3.26-7.29-7.29-7.29l0,0c-4.02,0-7.29,3.26-7.29,7.29v1.1
			c0,4.02,3.26,7.29,7.29,7.29l0,0C100.27,203.79,103.53,200.53,103.53,196.51z"/>
	</g>
	<g>
		
			<rect x="161.32" y="151.3" transform="matrix(-1 -1.224647e-16 1.224647e-16 -1 365.8447 352.374)" class="st3" width="43.21" height="49.78"/>
		
			<rect x="156.41" y="151.3" transform="matrix(-1 -1.224647e-16 1.224647e-16 -1 359.6437 352.374)" class="st2" width="46.82" height="49.78"/>
		
			<rect x="158.86" y="156.7" transform="matrix(-1.836970e-16 1 -1 -1.836970e-16 356.0089 -3.6348)" class="st4" width="41.93" height="38.98"/>
		<path class="st2" d="M181.45,168.41l7.4,12.82c0.72,1.26-0.18,2.82-1.63,2.82h-14.8c-1.45,0-2.36-1.57-1.63-2.82l7.4-12.82
			C178.92,167.16,180.73,167.16,181.45,168.41z"/>
	</g>
	<g>
		<g>
			
				<rect x="90.02" y="307.52" transform="matrix(-1 -1.224647e-16 1.224647e-16 -1 203.7925 689.915)" class="st3" width="23.75" height="74.88"/>
			<polygon class="st1" points="94.53,382.4 90.02,382.4 90.02,369.57 99.26,369.57 			"/>
			
				<rect x="178.77" y="307.52" transform="matrix(-1 -1.224647e-16 1.224647e-16 -1 381.2875 689.915)" class="st3" width="23.75" height="74.88"/>
			
				<rect x="90.02" y="307.52" transform="matrix(-1 -1.224647e-16 1.224647e-16 -1 272.7305 682.0428)" class="st1" width="92.68" height="67.01"/>
			
				<rect x="90.8" y="314.44" transform="matrix(6.123234e-17 -1 1 6.123234e-17 -220.9156 449.2895)" class="st3" width="46.77" height="41.33"/>
			
				<rect x="135.16" y="314.44" transform="matrix(6.123234e-17 -1 1 6.123234e-17 -176.5589 493.6461)" class="st3" width="46.77" height="41.33"/>
			<path class="st1" d="M154.46,315.31h8.18c3.55,0,6.95-1.46,9.39-4.04l0,0h-26.96h0C147.51,313.85,150.9,315.31,154.46,315.31z"/>
			<path class="st1" d="M109.68,315.31h8.18c3.55,0,6.95-1.46,9.39-4.04l0,0h-26.96l0,0C102.73,313.85,106.13,315.31,109.68,315.31z
				"/>
			<polygon class="st1" points="178.2,382.4 182.71,382.4 182.71,369.57 173.47,369.57 			"/>
		</g>
		<g>
			<path class="st7" d="M153.75,297.48c0,2.84,2.3,5.14,5.14,5.14c2.84,0,5.14-2.3,5.14-5.14s-2.3-5.14-5.14-5.14
				C156.06,292.34,153.75,294.64,153.75,297.48z"/>
			<circle class="st7" cx="161.23" cy="294.14" r="5.14"/>
			<path class="st7" d="M127.95,298.31c0,2.84,2.3,5.14,5.14,5.14c2.84,0,5.14-2.3,5.14-5.14c0-2.84-2.3-5.14-5.14-5.14
				C130.25,293.17,127.95,295.47,127.95,298.31z"/>
			<circle class="st7" cx="168.11" cy="294.98" r="6.31"/>
			<path class="st7" d="M149.3,289.17c0,3.48,2.82,6.31,6.31,6.31c3.48,0,6.31-2.82,6.31-6.31s-2.82-6.31-6.31-6.31
				C152.13,282.87,149.3,285.69,149.3,289.17z"/>
			<path class="st7" d="M139.3,290.78c0,3.48,2.82,6.31,6.31,6.31c3.48,0,6.31-2.82,6.31-6.31c0-3.48-2.82-6.31-6.31-6.31
				C142.13,284.48,139.3,287.3,139.3,290.78z"/>
			<path class="st7" d="M143.53,295.87c0,3.33,2.7,6.04,6.04,6.04c3.33,0,6.04-2.7,6.04-6.04c0-3.33-2.7-6.04-6.04-6.04
				C146.24,289.83,143.53,292.54,143.53,295.87z"/>
			<path class="st7" d="M133.09,295.48c0,3.58,2.9,6.48,6.48,6.48c3.58,0,6.48-2.9,6.48-6.48c0-3.58-2.9-6.48-6.48-6.48
				C135.99,289,133.09,291.9,133.09,295.48z"/>
			<path class="st1" d="M178.17,297.48c0,0-0.71,10.03-27.77,10.03c-27.07,0-27.77-10.03-27.77-10.03H178.17z"/>
		</g>
	</g>
</g>
<g id="Background_Simple" class="st8">
	<g class="st9">
		<path class="st10" d="M420.57,323.71c-10.39,17.57-43.78,24.02-61.46,22.89c-20.34-1.29-36.73-13.75-50.94-25.96
			c-17.92-15.4-29.23-23.67-55.03-19.52c-22.7,3.65-44.23,11.59-67.26,13.04c-47.09,2.95-101.44-4.19-114.6-52.12
			c-12.06-43.96,14.43-88.02,66.65-87.82c44.09,0.17,43.96,55.05,92.33,37.42c45.04-16.41,52.02-79.76,107.87-74.91
			c55.54,4.82,19.49,70.2,21.04,105.7c1,22.79,27.39,12.51,44.85,21.87C425.13,275.6,433.72,301.48,420.57,323.71z"/>
		<path class="st11" d="M420.57,323.71c-10.39,17.57-43.78,24.02-61.46,22.89c-20.34-1.29-36.73-13.75-50.94-25.96
			c-17.92-15.4-29.23-23.67-55.03-19.52c-22.7,3.65-44.23,11.59-67.26,13.04c-47.09,2.95-101.44-4.19-114.6-52.12
			c-12.06-43.96,14.43-88.02,66.65-87.82c44.09,0.17,43.96,55.05,92.33,37.42c45.04-16.41,52.02-79.76,107.87-74.91
			c55.54,4.82,19.49,70.2,21.04,105.7c1,22.79,27.39,12.51,44.85,21.87C425.13,275.6,433.72,301.48,420.57,323.71z"/>
	</g>
	<g class="st9">
		<g>
			<path class="st10" d="M12213.7,152.05c-28.82-19.69-45.9-61.44-84.99-63.16c-19.11-0.84-31.37,12.99-49.05,16.48
				c-15.21,3-25.5-4.74-39.86-4.78c-35.71-0.1-60.99,24.03-51.56,61.48c9.01,35.77,30.21,70.76,79.98,96.3
				c74.04,37.98,142.26,40.63,199.78,3.8c47.55-30.44,53.85-93.88,32.3-112.01C12283.43,135.96,12241.14,170.79,12213.7,152.05z"/>
		</g>
		<g class="st12">
			<path class="st4" d="M12213.7,152.05c-28.82-19.69-45.9-61.44-84.99-63.16c-19.11-0.84-31.37,12.99-49.05,16.48
				c-15.21,3-25.5-4.74-39.86-4.78c-35.71-0.1-60.99,24.03-51.56,61.48c9.01,35.77,30.21,70.76,79.98,96.3
				c74.04,37.98,142.26,40.63,199.78,3.8c47.55-30.44,53.85-93.88,32.3-112.01C12283.43,135.96,12241.14,170.79,12213.7,152.05z"/>
		</g>
	</g>
	<g class="st9">
		<path class="st10" d="M12885.93,179.93c-52.77,21.87-91.9-45.86-135.61-56.81c-53.49-13.4-96.91,35.48-80.91,86.7
			c13.72,43.92,55.17,42.91,87.51,65.03c44.16,30.21,62.78,76.39,119.74,90.31c110.05,26.89,142.65-131.35,116.18-214.32
			c-9.13-28.62-18.4-52.37-53.64-41.9C12907.23,118.44,12907.67,170.92,12885.93,179.93z"/>
		<path class="st11" d="M12885.93,179.93c-52.77,21.87-91.9-45.86-135.61-56.81c-53.49-13.4-96.91,35.48-80.91,86.7
			c13.72,43.92,55.17,42.91,87.51,65.03c44.16,30.21,62.78,76.39,119.74,90.31c110.05,26.89,142.65-131.35,116.18-214.32
			c-9.13-28.62-18.4-52.37-53.64-41.9C12907.23,118.44,12907.67,170.92,12885.93,179.93z"/>
	</g>
	<g class="st9">
		<path class="st10" d="M13743.03,224.99c-32.42-95.6-174.29-106.71-258.07-96.98c-39.26,4.56-84.56,15.1-107.81,50.18
			c-25.65,38.71-20.09,93.56,16.13,123.29c48.63,39.91,74.83-0.24,118.66-19.19c49.88-21.56,54.32,24.81,83.13,53.65
			C13666.14,407.08,13771.18,307.99,13743.03,224.99z M13670.17,310.36c0.03,0,0.07,0.01,0.15,0.02
			C13670.25,310.37,13670.19,310.37,13670.17,310.36z M13672,310.59c0.05,0.01,0.1,0.01,0.14,0.02
			C13672.1,310.6,13672.05,310.59,13672,310.59z M13672.43,310.64C13672.46,310.64,13672.46,310.64,13672.43,310.64L13672.43,310.64
			z M13672.21,310.61c0.11,0.01,0.18,0.02,0.21,0.03C13672.38,310.64,13672.3,310.63,13672.21,310.61z"/>
		<path class="st11" d="M13743.03,224.99c-32.42-95.6-174.29-106.71-258.07-96.98c-39.26,4.56-84.56,15.1-107.81,50.18
			c-25.65,38.71-20.09,93.56,16.13,123.29c48.63,39.91,74.83-0.24,118.66-19.19c49.88-21.56,54.32,24.81,83.13,53.65
			C13666.14,407.08,13771.18,307.99,13743.03,224.99z M13670.17,310.36c0.03,0,0.07,0.01,0.15,0.02
			C13670.25,310.37,13670.19,310.37,13670.17,310.36z M13672,310.59c0.05,0.01,0.1,0.01,0.14,0.02
			C13672.1,310.6,13672.05,310.59,13672,310.59z M13672.43,310.64C13672.46,310.64,13672.46,310.64,13672.43,310.64L13672.43,310.64
			z M13672.21,310.61c0.11,0.01,0.18,0.02,0.21,0.03C13672.38,310.64,13672.3,310.63,13672.21,310.61z"/>
	</g>
</g>
<g id="Shadow_1_">
	<ellipse id="_x3C_Path_x3E__64_" class="st2" cx="250" cy="416.24" rx="193.89" ry="11.32"/>
</g>
<g id="Gear">
	<g>
		<g>
			<g>
				<path class="st13" d="M307.77,119.9c-0.82-2.71-1.9-5.3-3.21-7.76l2-6.55l-12.94-12.94l-6.55,2c-2.45-1.31-5.05-2.39-7.76-3.21
					l-3.22-6.05h-18.3l-3.22,6.05c-2.71,0.82-5.3,1.9-7.76,3.21l-6.55-2l-12.94,12.94l2,6.55c-1.31,2.45-2.39,5.05-3.21,7.76
					l-6.05,3.22v18.3l6.05,3.22c0.82,2.71,1.9,5.3,3.21,7.76l-2,6.55l12.94,12.94l6.55-2c2.45,1.31,5.05,2.39,7.76,3.21l3.22,6.05
					h18.3l3.22-6.05c2.71-0.82,5.3-1.9,7.76-3.21l6.55,2l12.94-12.94l-2-6.55c1.31-2.45,2.39-5.05,3.21-7.76l6.05-3.22v-18.3
					L307.77,119.9z M266.94,158.26c-14.36,0-25.99-11.64-25.99-25.99s11.64-25.99,25.99-25.99c14.36,0,25.99,11.64,25.99,25.99
					S281.3,158.26,266.94,158.26z"/>
				<path class="st14" d="M307.77,119.9c-0.82-2.71-1.9-5.3-3.21-7.76l2-6.55l-12.94-12.94l-6.55,2c-2.45-1.31-5.05-2.39-7.76-3.21
					l-3.22-6.05h-18.3l-3.22,6.05c-2.71,0.82-5.3,1.9-7.76,3.21l-6.55-2l-12.94,12.94l2,6.55c-1.31,2.45-2.39,5.05-3.21,7.76
					l-6.05,3.22v18.3l6.05,3.22c0.82,2.71,1.9,5.3,3.21,7.76l-2,6.55l12.94,12.94l6.55-2c2.45,1.31,5.05,2.39,7.76,3.21l3.22,6.05
					h18.3l3.22-6.05c2.71-0.82,5.3-1.9,7.76-3.21l6.55,2l12.94-12.94l-2-6.55c1.31-2.45,2.39-5.05,3.21-7.76l6.05-3.22v-18.3
					L307.77,119.9z M266.94,158.26c-14.36,0-25.99-11.64-25.99-25.99s11.64-25.99,25.99-25.99c14.36,0,25.99,11.64,25.99,25.99
					S281.3,158.26,266.94,158.26z"/>
			</g>
			<path class="st13" d="M266.94,123.65c-4.76,0-8.61,3.86-8.61,8.61s3.86,8.61,8.61,8.61c4.76,0,8.61-3.86,8.61-8.61
				S271.7,123.65,266.94,123.65z"/>
		</g>
		<g>
			<path class="st13" d="M438.02,148.93c-1.17-3.87-2.72-7.58-4.59-11.09c0,0,0,0,0,0l2.86-9.36l-18.49-18.49l-9.36,2.86
				c0,0,0,0,0,0c-3.5-1.89-7.22-3.43-11.09-4.6c0,0,0,0,0,0l-4.59-8.64H366.6l-4.59,8.64c-3.87,1.16-7.58,2.71-11.09,4.6
				c0,0,0,0,0,0l-9.36-2.86l-18.49,18.49l2.86,9.35c0,0,0,0,0,0c-1.87,3.51-3.42,7.22-4.59,11.1l-8.65,4.6v26.15l8.64,4.59
				c0,0,0,0,0,0c1.17,3.87,2.72,7.59,4.59,11.09c0,0,0,0,0,0l-2.86,9.36l18.49,18.49l9.36-2.86c3.51,1.89,7.22,3.44,11.09,4.6
				l4.59,8.64h26.15l4.59-8.64c0,0,0,0,0,0c3.87-1.17,7.58-2.71,11.09-4.6l9.37,2.87l18.49-18.49l-2.86-9.36c0,0,0,0,0,0
				c1.87-3.5,3.42-7.22,4.59-11.09c0,0,0,0,0,0l8.65-4.6v-26.15L438.02,148.93z M379.67,214.01c-26.18,0-47.4-21.22-47.4-47.4
				c0-26.19,21.22-47.41,47.4-47.41c26.18,0,47.41,21.22,47.41,47.41C427.08,192.78,405.85,214.01,379.67,214.01z"/>
			<g>
				<path class="st13" d="M379.67,125.83c-22.48,0-40.77,18.29-40.77,40.77s18.29,40.77,40.77,40.77
					c22.48,0,40.77-18.29,40.77-40.77S402.16,125.83,379.67,125.83z M379.67,201.94c-19.49,0-35.34-15.85-35.34-35.34
					c0-19.49,15.85-35.34,35.34-35.34c19.49,0,35.34,15.85,35.34,35.34C415.01,186.09,399.16,201.94,379.67,201.94z"/>
				<path class="st15" d="M379.67,125.83c-22.48,0-40.77,18.29-40.77,40.77s18.29,40.77,40.77,40.77
					c22.48,0,40.77-18.29,40.77-40.77S402.16,125.83,379.67,125.83z M379.67,201.94c-19.49,0-35.34-15.85-35.34-35.34
					c0-19.49,15.85-35.34,35.34-35.34c19.49,0,35.34,15.85,35.34,35.34C415.01,186.09,399.16,201.94,379.67,201.94z"/>
			</g>
		</g>
		<g>
			<path class="st13" d="M286,236.16c-0.55,0-1-0.45-1-1v-2c0-0.55,0.45-1,1-1s1,0.45,1,1v2C287,235.72,286.55,236.16,286,236.16z"
				/>
			<path class="st13" d="M270.43,210.32c-0.92-0.6-1.63-1.44-2.06-2.45c-0.22-0.51-0.81-0.74-1.31-0.53
				c-0.51,0.22-0.75,0.8-0.53,1.31c0.58,1.37,1.55,2.53,2.8,3.34c0.17,0.11,0.36,0.16,0.54,0.16c0.33,0,0.65-0.16,0.84-0.45
				C271.02,211.24,270.89,210.62,270.43,210.32z"/>
			<path class="st13" d="M266.94,197.83c0.55,0,1-0.45,1-1V193c0-0.55-0.45-1-1-1c-0.55,0-1,0.45-1,1v3.83
				C265.94,197.38,266.39,197.83,266.94,197.83z"/>
			<path class="st13" d="M277.35,211.2h-3.84c-0.55,0-1,0.45-1,1c0,0.55,0.45,1,1,1h3.84c0.55,0,1-0.45,1-1
				C278.35,211.65,277.9,211.2,277.35,211.2z"/>
			<path class="st13" d="M267.94,204.5v-3.83c0-0.55-0.45-1-1-1c-0.55,0-1,0.45-1,1v3.83c0,0.55,0.45,1,1,1
				C267.5,205.5,267.94,205.05,267.94,204.5z"/>
			<path class="st13" d="M286.94,217.7c-0.07-0.55-0.57-0.94-1.12-0.86c-0.55,0.07-0.94,0.57-0.87,1.12
				c0.03,0.23,0.05,0.47,0.05,0.71v3c0,0.55,0.45,1,1,1s1-0.45,1-1v-3C287,218.34,286.98,218.02,286.94,217.7z"/>
			<path class="st13" d="M286,224.49c-0.55,0-1,0.45-1,1v3.83c0,0.55,0.45,1,1,1s1-0.45,1-1v-3.83
				C287,224.94,286.55,224.49,286,224.49z"/>
			<path class="st13" d="M285.13,213.73c-0.99-1.12-2.28-1.91-3.72-2.29c-0.54-0.14-1.08,0.18-1.22,0.72
				c-0.14,0.53,0.18,1.08,0.72,1.22c1.05,0.27,1.99,0.85,2.72,1.67c0.2,0.22,0.47,0.34,0.75,0.34c0.24,0,0.47-0.08,0.66-0.25
				C285.46,214.77,285.5,214.14,285.13,213.73z"/>
			<path class="st13" d="M266.94,190.12c-0.55,0-1-0.45-1-1v-2c0-0.55,0.45-1,1-1c0.55,0,1,0.45,1,1v2
				C267.94,189.68,267.5,190.12,266.94,190.12z"/>
		</g>
	</g>
</g>
<g id="Desk">
	<g>
		<g>
			<g>
				<rect x="101.83" y="286.51" class="st16" width="231.54" height="3.71"/>
				<g>
					
						<rect x="333.37" y="286.51" transform="matrix(-1 -1.224647e-16 1.224647e-16 -1 716.9766 576.7286)" class="st13" width="50.24" height="3.71"/>
					
						<rect x="333.37" y="286.51" transform="matrix(-1 -1.224647e-16 1.224647e-16 -1 716.9766 576.7286)" class="st14" width="50.24" height="3.71"/>
				</g>
			</g>
			<g>
				<polygon class="st13" points="366.83,294.19 118.61,294.19 110.31,290.22 375.14,290.22 				"/>
				<polygon class="st17" points="366.83,294.19 118.61,294.19 110.31,290.22 375.14,290.22 				"/>
			</g>
			<polygon class="st13" points="126.11,294.19 126.11,412.53 129.29,412.53 133.29,294.19 			"/>
			<polygon class="st13" points="163.65,294.19 163.65,412.53 166.83,412.53 170.83,294.19 			"/>
			<polygon class="st13" points="366.83,294.19 366.83,412.53 363.66,412.53 359.66,294.19 			"/>
			<polygon class="st13" points="329.3,294.19 329.3,412.53 326.12,412.53 322.12,294.19 			"/>
		</g>
		<g>
			<g>
				<polygon class="st13" points="253.74,241.59 243.29,284.16 243.29,284.16 243,286.51 315.09,286.51 315.38,284.16 
					325.82,241.59 				"/>
				<polygon class="st18" points="253.74,241.59 243.29,284.16 243.29,284.16 243,286.51 315.09,286.51 315.38,284.16 
					325.82,241.59 				"/>
			</g>
			<polygon class="st13" points="323.61,241.59 251.52,241.59 241.08,284.16 313.16,284.16 			"/>
			<polygon class="st4" points="311.63,282.21 321.13,243.54 253.05,243.54 243.55,282.21 			"/>
			<g>
				<polygon class="st13" points="294.38,284.16 294.08,286.51 214.71,286.51 215,284.16 				"/>
				<polygon class="st19" points="294.38,284.16 294.08,286.51 214.71,286.51 215,284.16 				"/>
			</g>
		</g>
		<path class="st13" d="M144.44,278.77c0-3.09-2.45-5.64-5.63-6.1v-1.15c0-0.27-0.23-0.49-0.52-0.49h-10.8
			c-0.29,0-0.52,0.22-0.52,0.49v14.99h11.85v-1.64C141.99,284.42,144.44,281.86,144.44,278.77z M138.81,282.94v-8.33
			c2.05,0.43,3.58,2.13,3.58,4.16C142.4,280.81,140.86,282.51,138.81,282.94z"/>
		<g>
			<polygon class="st13" points="346.56,286.51 356.6,286.51 353.63,264.52 346.56,264.52 			"/>
			<g>
				<polygon class="st13" points="331.84,286.51 350.85,286.51 354.39,260.77 335.38,260.77 				"/>
				<polygon class="st18" points="331.84,286.51 350.85,286.51 354.39,260.77 335.38,260.77 				"/>
			</g>
			<polygon class="st13" points="329.3,286.51 349.09,286.51 352.63,260.77 332.84,260.77 			"/>
			<polygon class="st20" points="347.34,284.48 350.32,262.8 334.59,262.8 331.61,284.48 			"/>
		</g>
	</g>
</g>
<g id="Character_1_">
	<g>
		<g>
			<path class="st21" d="M197.54,248.51l-0.82,0.89l-0.88,1c-0.59,0.67-1.17,1.37-1.74,2.08c-1.12,1.42-2.21,2.87-3.21,4.36
				c-2.02,2.97-3.75,6.07-4.98,9.24c-0.61,1.59-1.1,3.18-1.42,4.78c-0.16,0.92-0.27,1.32-0.31,1.71c-0.05,0.38-0.06,0.65,0,0.94
				c0.06,0.57,0.76,1.49,2.04,2.26c0.62,0.4,1.35,0.74,2.12,1.07c0.39,0.16,0.79,0.31,1.2,0.45c0.39,0.14,0.87,0.28,1.16,0.4
				l0.01,5.52c-0.7,0.1-1.2,0.18-1.8,0.21c-0.58,0.04-1.16,0.05-1.74,0.04c-1.17-0.02-2.37-0.17-3.61-0.46
				c-1.23-0.3-2.51-0.76-3.78-1.52c-1.25-0.76-2.52-1.82-3.48-3.24c-0.96-1.41-1.57-3.08-1.82-4.66c-0.08-0.41-0.1-0.79-0.13-1.18
				c-0.03-0.39-0.03-0.77-0.02-1.14l0.01-0.56c0.01-0.18,0.03-0.3,0.04-0.46l0.09-0.87c0.26-2.32,0.75-4.58,1.44-6.73
				c1.35-4.32,3.34-8.28,5.67-11.92c1.16-1.83,2.42-3.57,3.77-5.25c0.67-0.84,1.36-1.66,2.08-2.47c0.36-0.41,0.72-0.81,1.11-1.2
				c0.4-0.41,0.73-0.76,1.24-1.25L197.54,248.51z"/>
			<path class="st21" d="M188.65,277.55l4.66-3.41l2.66,9.58c0,0-4.13,1.53-7.29-0.53L188.65,277.55z"/>
			<polygon class="st21" points="199.78,271.83 201.6,279.85 195.96,283.71 193.31,274.13 			"/>
			<path class="st22" d="M229.25,211.75c-0.21,0.59-0.06,1.18,0.33,1.32c0.39,0.13,0.87-0.24,1.08-0.83
				c0.21-0.59,0.06-1.18-0.33-1.32C229.94,210.78,229.46,211.15,229.25,211.75z"/>
			<path class="st23" d="M229.14,212.91c0,0,0.16,3.89,1.07,6.06c-1.39,0.61-3.02-0.45-3.02-0.45L229.14,212.91z"/>
			<path class="st22" d="M228.29,207.73c0.07,0.02,0.15,0.03,0.23,0c1.56-0.46,2.59,0.37,2.63,0.41c0.16,0.13,0.39,0.11,0.52-0.05
				c0.13-0.16,0.11-0.39-0.04-0.52c-0.06-0.05-1.37-1.13-3.32-0.55c-0.2,0.06-0.31,0.26-0.25,0.46
				C228.1,207.61,228.18,207.69,228.29,207.73z"/>
			<path class="st21" d="M207.32,213.93c1.12,5.69,2.23,16.12-1.75,19.92c0,0,1.56,5.78,12.13,5.78c11.63,0,5.56-5.77,5.56-5.77
				c-6.35-1.52-6.18-6.23-5.08-10.65L207.32,213.93z"/>
			<path class="st22" d="M204.05,235.83c-0.83-1.83-1.75-3.92,0.15-4.58c2.09-0.72,13.52-1.46,17.47-0.1
				c3.94,1.35,2.82,5.06,2.82,5.06L204.05,235.83z"/>
			<path class="st21" d="M243.98,245.59c2.44,4.41,5.07,8.95,7.74,13.31c2.67,4.38,5.45,8.69,8.43,12.66
				c0.74,1.01,1.5,1.95,2.27,2.89c0.38,0.49,0.78,0.9,1.17,1.35l0.59,0.66l0.15,0.17l0.07,0.08l0.02,0.02
				c0.03,0.03,0.05,0.06,0.08,0.1c0.21,0.28,0.82,0.67,1.63,0.98c0.82,0.32,1.83,0.53,2.92,0.71c4.39,0.63,9.67,0.31,14.61-0.17
				l1.52,5.3c-1.35,0.6-2.61,1.05-3.95,1.5c-1.32,0.45-2.66,0.84-4.04,1.17c-2.75,0.66-5.59,1.13-8.68,1.16
				c-1.55,0.02-3.16-0.11-4.89-0.48c-1.72-0.39-3.61-1.02-5.44-2.43l-0.67-0.55l-0.16-0.14l-0.1-0.1l-0.2-0.19l-0.78-0.77
				c-0.51-0.51-1.06-1.02-1.53-1.55c-0.96-1.05-1.94-2.09-2.81-3.17c-3.59-4.29-6.72-8.74-9.65-13.29
				c-1.47-2.28-2.88-4.58-4.22-6.91c-1.36-2.35-2.67-4.65-3.94-7.13L243.98,245.59z"/>
			<path class="st13" d="M191.64,235.61c-7.29,1.67-15.66,21.56-15.66,21.56l14.65,10.04c0,0,5.55-7.76,9.68-16.45
				C204.63,241.66,199.1,233.9,191.64,235.61z"/>
			<path class="st24" d="M196.86,248.29l-6.93,18.44l0.69,0.48c0,0,3-4.21,6.24-9.88V248.29z"/>
			<path class="st13" d="M235.24,236.01c0,0,8.28,9.36,0.46,67.26c-12.54,0-35.52,0-41.62,0c-0.29-6.39,3.73-37.56-2.43-67.66
				c0,0,7.13-1.43,13.93-1.76c5.32-0.26,13.02-0.43,17.69,0C229.43,234.41,235.24,236.01,235.24,236.01z"/>
			<path class="st24" d="M230.61,252.75c0.14,0.17,1.05,9.57,8.22,17.82c0.17-3.73,0.23-7.08,0.22-10.07L230.61,252.75z"/>
			<path class="st13" d="M227.02,242.32c-1.03,7.37,13.49,26.19,13.49,26.19l14.59-10.04c0,0-4.04-10.37-10.86-17.17
				C236.47,233.54,228.14,234.3,227.02,242.32z"/>
			<path class="st21" d="M281.97,278.39l5.94-2.43l6.11,4.61c0,0-5.84,5.16-11.14,3.16L281.97,278.39z"/>
			<polygon class="st21" points="291.86,275.71 296.34,278.91 294.02,280.57 287.91,275.95 			"/>
			<path class="st21" d="M209.91,203.61c-2.09,7.44-3.68,11.68-1.31,16.7c3.58,7.55,13.72,7.34,17.99,0.67
				c3.84-6,6.6-17.15,0.49-22.53C221.05,193.16,212,196.18,209.91,203.61z"/>
			<path class="st22" d="M225.75,203.69c-3.03,8.54-6.52,17.92-15.14,16.15c-5.56-1.15-5.99-10.1-8-14.17
				c-1.76-3.58-1.66-10.76,1.96-10.84c-1.63-2.38,6.66-11.09,12.31-6.49c1.45-2,11.9-7.89,19.64,1.46
				C243.84,198.63,240.27,206.02,225.75,203.69z"/>
			<path class="st21" d="M219,209.15c-0.25,2.01,0.33,4.05,1.22,5.47c1.33,2.14,3.28,1.32,3.99-0.86c0.64-1.97,0.71-5.45-1.14-6.84
				C221.24,205.55,219.28,206.85,219,209.15z"/>
			<g>
				<path class="st13" d="M282.88,406.88c1,0,1.96-0.14,2.29-0.59c0.11-0.16,0.2-0.42-0.01-0.81c-0.12-0.21-0.32-0.36-0.58-0.43
					c-1.29-0.35-4.01,1.2-4.13,1.26c-0.07,0.04-0.1,0.11-0.09,0.19c0.01,0.08,0.07,0.14,0.15,0.15
					C280.99,406.76,281.95,406.88,282.88,406.88z M284.12,405.37c0.13,0,0.25,0.01,0.36,0.04c0.17,0.05,0.29,0.13,0.36,0.26
					c0.13,0.23,0.08,0.34,0.04,0.41c-0.36,0.5-2.33,0.51-3.78,0.31C281.81,406.01,283.21,405.37,284.12,405.37z"/>
				<path class="st13" d="M280.53,406.66c0.03,0,0.05-0.01,0.08-0.02c0.94-0.42,2.8-2.1,2.66-2.98c-0.03-0.21-0.18-0.46-0.69-0.52
					c-0.38-0.03-0.72,0.07-1.02,0.32c-0.99,0.81-1.2,2.91-1.21,3c-0.01,0.07,0.02,0.13,0.08,0.17
					C280.46,406.65,280.49,406.66,280.53,406.66z M282.43,403.51c0.04,0,0.07,0,0.11,0.01c0.33,0.03,0.35,0.16,0.36,0.21
					c0.09,0.53-1.18,1.85-2.14,2.43c0.1-0.61,0.38-1.87,1.03-2.4C281.99,403.58,282.2,403.51,282.43,403.51z"/>
				<polygon class="st21" points="271.48,406.48 279.26,406.48 281.03,388.45 273.24,388.45 				"/>
				<path class="st22" d="M279.7,405.58l-8.5,0c-0.32,0-0.59,0.22-0.66,0.53l-1.54,6.92c-0.16,0.72,0.39,1.4,1.12,1.38
					c3.07-0.05,7.5-0.23,11.35-0.23c4.51,0,8.4,0.25,13.68,0.25c3.19,0,4.08-3.23,2.74-3.52c-6.09-1.33-11.06-1.47-16.32-4.72
					C281.01,405.83,280.38,405.58,279.7,405.58z"/>
				<polygon class="st24" points="281.02,388.46 280.12,397.75 272.33,397.75 273.24,388.46 				"/>
			</g>
			<path class="st13" d="M251.69,406.87c0.8,0,1.57-0.12,1.87-0.51c0.13-0.16,0.23-0.45-0.01-0.87c-0.12-0.22-0.32-0.37-0.58-0.43
				c-1.13-0.27-3.29,1.2-3.38,1.27c-0.06,0.04-0.09,0.11-0.08,0.19c0.01,0.07,0.07,0.13,0.14,0.15
				C250.06,406.75,250.89,406.87,251.69,406.87z M252.67,405.39c0.08,0,0.16,0.01,0.23,0.02c0.16,0.04,0.27,0.12,0.34,0.25
				c0.17,0.3,0.07,0.43,0.04,0.47c-0.33,0.44-1.92,0.44-3.08,0.25C250.85,405.97,251.96,405.39,252.67,405.39z"/>
			<path class="st13" d="M249.71,406.66c0.03,0,0.06-0.01,0.09-0.02c0.81-0.44,2.36-2.14,2.2-3.01c-0.03-0.16-0.15-0.43-0.59-0.48
				c-0.29-0.03-0.55,0.04-0.78,0.24c-0.9,0.74-1.09,2.98-1.1,3.08c-0.01,0.07,0.03,0.13,0.08,0.17
				C249.64,406.65,249.67,406.66,249.71,406.66z M251.28,403.51c0.03,0,0.06,0,0.08,0.01c0.24,0.03,0.26,0.14,0.27,0.19
				c0.1,0.51-0.89,1.8-1.69,2.41c0.09-0.66,0.34-1.97,0.92-2.44C250.99,403.56,251.12,403.51,251.28,403.51z"/>
			<polygon class="st21" points="240.79,406.48 248.57,406.48 252.48,388.45 244.7,388.45 			"/>
			<path class="st22" d="M249.12,405.58l-8.74,0c-0.32,0-0.59,0.22-0.66,0.53l-1.54,6.92c-0.16,0.72,0.4,1.4,1.14,1.38
				c3.05-0.05,4.54-0.23,8.38-0.23c2.37,0,5.4,0.25,8.67,0.25c3.19,0,3.69-3.23,2.36-3.52c-6-1.31-6.42-3.12-8.34-4.85
				C250.04,405.74,249.59,405.58,249.12,405.58z"/>
			<g class="st24">
				<polygon points="244.7,388.46 252.48,388.46 250.46,397.75 242.68,397.75 				"/>
			</g>
			<path class="st22" d="M235.7,303.27c0,0,58.3,6.17,57.67,35.91c-0.66,30.93-10.62,54.61-10.62,54.61h-11.56
				c0,0,0.59-18.86,0.2-49.32c-0.12-9.12-18.55-12.14-36.56-13.2c-15.55-0.92-29.2-10.7-35.24-25.06l-1.24-2.94H235.7z"/>
			<path class="st13" d="M285.57,390.7c0.06,0-0.74,5.47-0.74,5.47h-16.04l-0.43-4.88L285.57,390.7z"/>
			<path class="st22" d="M223.22,303.27c0,0,42.26,14.02,43.33,31.36c1.96,31.94-13.7,59.16-13.7,59.16h-11.67
				c0,0,4.43-13.5,6.02-42.43c2-36.36-65.83-0.06-53.12-48.09H223.22z"/>
			<path class="st13" d="M256.37,390.7c0.06,0-1.47,5.47-1.47,5.47h-16.04l0.29-4.88L256.37,390.7z"/>
		</g>
		<g>
			<path class="st16" d="M253.7,333.89H188.7l0,0c0-4.1,3.32-7.42,7.42-7.42h50.16C250.38,326.47,253.7,329.79,253.7,333.89
				L253.7,333.89z"/>
			<g>
				<polygon class="st13" points="191.71,333.89 181.91,416.04 184.01,416.04 196.43,333.89 				"/>
				<polygon class="st25" points="191.71,333.89 181.91,416.04 184.01,416.04 196.43,333.89 				"/>
			</g>
			<g>
				<polygon class="st13" points="204.82,333.89 204.63,416.04 206.72,416.04 209.55,333.89 				"/>
				<polygon class="st25" points="204.82,333.89 204.63,416.04 206.72,416.04 209.55,333.89 				"/>
			</g>
			<g>
				<polygon class="st13" points="250.69,333.89 260.49,416.04 258.39,416.04 245.96,333.89 				"/>
				<polygon class="st25" points="250.69,333.89 260.49,416.04 258.39,416.04 245.96,333.89 				"/>
			</g>
			<g>
				<polygon class="st13" points="237.58,333.89 237.77,416.04 235.68,416.04 232.85,333.89 				"/>
				<polygon class="st25" points="237.58,333.89 237.77,416.04 235.68,416.04 232.85,333.89 				"/>
			</g>
		</g>
	</g>
</g>
</svg>
